<?xml version="1.0" standalone="no"?>
<svg
  width="800"
  height="800"
  viewBox="0 0 600 600"
  xmlns="http://www.w3.org/2000/svg"
>
  <g transform="translate(300,300)">
      <path d="M88.8,-143.4C107.8,-108.4,111,-72.7,129.2,-37.1C147.4,-1.5,180.7,34,176,59.9C171.3,85.7,128.5,101.9,92.9,136.8C57.2,171.7,28.6,225.4,-13.5,244C-55.6,262.6,-111.3,246.2,-153.6,213.4C-195.9,180.7,-224.9,131.6,-237.2,80.3C-249.5,28.9,-245.1,-24.6,-215.2,-55.5C-185.3,-86.4,-130,-94.6,-89.9,-122.7C-49.8,-150.8,-24.9,-198.9,5,-205.8C34.9,-212.7,69.8,-178.3,88.8,-143.4Z" fill="#1054DD" />
  </g>
</svg>
  